<?xml version="1.0" encoding="UTF-8" standalone="no"?>
<!DOCTYPE svg PUBLIC "-//W3C//DTD SVG 1.1//EN"
 "http://www.w3.org/Graphics/SVG/1.1/DTD/svg11.dtd">
<!-- Generated by graphviz version 13.0.0 (20250608.1624)
 -->
<!-- Title: G Pages: 1 -->
<svg width="578pt" height="666pt"
 viewBox="0.00 0.00 578.00 666.00" xmlns="http://www.w3.org/2000/svg" xmlns:xlink="http://www.w3.org/1999/xlink">
<g id="graph0" class="graph" transform="scale(1 1) rotate(0) translate(4 662.25)">
<title>G</title><style>.edge>path:hover{stroke-width:8}</style>
<polygon fill="white" stroke="none" points="-4,4 -4,-662.25 573.76,-662.25 573.76,4 -4,4"/>
<!-- app_py -->
<g id="node1" class="node">
<title>app_py</title><style>.edge>path:hover{stroke-width:8}</style>
<ellipse fill="#9f5656" stroke="black" cx="478.14" cy="-18" rx="27.21" ry="18"/>
<text xml:space="preserve" text-anchor="middle" x="478.14" y="-14.5" font-family="Helvetica,sans-Serif" font-size="10.00" fill="#ffffff">app.py</text>
</g>
<!-- flask -->
<g id="node2" class="node">
<title>flask</title><style>.edge>path:hover{stroke-width:8}</style>
<polygon fill="blue" stroke="black" points="265.14,-145 211.14,-145 211.14,-109 265.14,-109 265.14,-145"/>
<text xml:space="preserve" text-anchor="middle" x="238.14" y="-123.5" font-family="Helvetica,sans-Serif" font-size="10.00" fill="white">flask</text>
</g>
<!-- flask&#45;&gt;app_py -->
<g id="edge1" class="edge">
<title>flask&#45;&gt;app_py</title><style>.edge>path:hover{stroke-width:8}</style>
<path fill="none" stroke="black" d="M265.55,-124.57C323.54,-120.86 455.2,-108.6 478.14,-73"/>
<path fill="none" stroke="black" d="M478.14,-72C482.74,-64.85 484.02,-55.95 483.78,-47.5"/>
<polygon fill="blue" stroke="black" points="487.26,-47.18 482.76,-37.59 480.3,-47.9 487.26,-47.18"/>
</g>
<!-- flask_app -->
<g id="node3" class="node">
<title>flask_app</title><style>.edge>path:hover{stroke-width:8}</style>
<polygon fill="blue" stroke="black" points="278.01,-586.25 222.26,-586.25 222.26,-550.25 278.01,-550.25 278.01,-586.25"/>
<text xml:space="preserve" text-anchor="middle" x="250.14" y="-564.75" font-family="Helvetica,sans-Serif" font-size="10.00" fill="white">flask.app</text>
</g>
<!-- flask_app&#45;&gt;flask -->
<g id="edge2" class="edge">
<title>flask_app&#45;&gt;flask</title><style>.edge>path:hover{stroke-width:8}</style>
<path fill="none" stroke="black" d="M440.14,-198C409.42,-140.78 326.33,-129.08 276.8,-127.4"/>
<polygon fill="blue" stroke="black" points="277.17,-123.91 267.1,-127.2 277.02,-130.91 277.17,-123.91"/>
<path fill="none" stroke="black" d="M278.37,-556.12C322.33,-536.71 402.14,-492.24 402.14,-425.25 402.14,-425.25 402.14,-425.25 402.14,-351.25 402.14,-306.3 415.06,-296.57 426.14,-253 432.14,-229.39 451.66,-221.47 440.14,-200"/>
</g>
<!-- flask_ctx -->
<g id="node6" class="node">
<title>flask_ctx</title><style>.edge>path:hover{stroke-width:8}</style>
<polygon fill="blue" stroke="black" points="184.14,-514.25 130.14,-514.25 130.14,-478.25 184.14,-478.25 184.14,-514.25"/>
<text xml:space="preserve" text-anchor="middle" x="157.14" y="-492.75" font-family="Helvetica,sans-Serif" font-size="10.00" fill="white">flask.ctx</text>
</g>
<!-- flask_app&#45;&gt;flask_ctx -->
<g id="edge3" class="edge">
<title>flask_app&#45;&gt;flask_ctx</title><style>.edge>path:hover{stroke-width:8}</style>
<path fill="none" stroke="black" d="M218,-543.06C208.67,-536.04 198.48,-528.37 189.15,-521.36"/>
<polygon fill="blue" stroke="black" points="215.84,-545.82 225.94,-549.04 220.05,-540.23 215.84,-545.82"/>
<polygon fill="blue" stroke="black" points="191.49,-518.73 181.39,-515.51 187.28,-524.32 191.49,-518.73"/>
</g>
<!-- flask_globals -->
<g id="node7" class="node">
<title>flask_globals</title><style>.edge>path:hover{stroke-width:8}</style>
<polygon fill="blue" stroke="black" points="222.51,-442.25 151.76,-442.25 151.76,-406.25 222.51,-406.25 222.51,-442.25"/>
<text xml:space="preserve" text-anchor="middle" x="187.14" y="-420.75" font-family="Helvetica,sans-Serif" font-size="10.00" fill="white">flask.globals</text>
</g>
<!-- flask_app&#45;&gt;flask_globals -->
<g id="edge4" class="edge">
<title>flask_app&#45;&gt;flask_globals</title><style>.edge>path:hover{stroke-width:8}</style>
<path fill="none" stroke="black" d="M237.88,-539.62C226.73,-514.51 210.39,-477.66 199.28,-452.63"/>
<polygon fill="blue" stroke="black" points="234.54,-540.74 241.8,-548.46 240.94,-537.9 234.54,-540.74"/>
<polygon fill="blue" stroke="black" points="202.6,-451.47 195.34,-443.75 196.2,-454.31 202.6,-451.47"/>
</g>
<!-- flask_templating -->
<g id="node11" class="node">
<title>flask_templating</title><style>.edge>path:hover{stroke-width:8}</style>
<polygon fill="blue" stroke="black" points="356.64,-217 295.64,-217 295.64,-181 356.64,-181 356.64,-217"/>
<text xml:space="preserve" text-anchor="middle" x="326.14" y="-201.5" font-family="Helvetica,sans-Serif" font-size="10.00" fill="white">flask.</text>
<text xml:space="preserve" text-anchor="middle" x="326.14" y="-189.5" font-family="Helvetica,sans-Serif" font-size="10.00" fill="white">templating</text>
</g>
<!-- flask_app&#45;&gt;flask_templating -->
<g id="edge5" class="edge">
<title>flask_app&#45;&gt;flask_templating</title><style>.edge>path:hover{stroke-width:8}</style>
<path fill="none" stroke="black" d="M273.84,-541.61C296.14,-514.73 326.14,-470.22 326.14,-425.25 326.14,-425.25 326.14,-425.25 326.14,-351.25 326.14,-308.56 326.14,-259.08 326.14,-228.66"/>
<polygon fill="blue" stroke="black" points="271.46,-539.01 267.61,-548.88 276.78,-543.56 271.46,-539.01"/>
<polygon fill="blue" stroke="black" points="329.64,-228.75 326.14,-218.75 322.64,-228.75 329.64,-228.75"/>
</g>
<!-- flask_blueprints -->
<g id="node4" class="node">
<title>flask_blueprints</title><style>.edge>path:hover{stroke-width:8}</style>
<polygon fill="blue" stroke="black" points="142.14,-217 84.14,-217 84.14,-181 142.14,-181 142.14,-217"/>
<text xml:space="preserve" text-anchor="middle" x="113.14" y="-201.5" font-family="Helvetica,sans-Serif" font-size="10.00" fill="white">flask.</text>
<text xml:space="preserve" text-anchor="middle" x="113.14" y="-189.5" font-family="Helvetica,sans-Serif" font-size="10.00" fill="white">blueprints</text>
</g>
<!-- flask_blueprints&#45;&gt;flask -->
<g id="edge6" class="edge">
<title>flask_blueprints&#45;&gt;flask</title><style>.edge>path:hover{stroke-width:8}</style>
<path fill="none" stroke="black" d="M142.44,-181.59C159.86,-171.84 182.11,-159.37 200.78,-148.92"/>
<polygon fill="blue" stroke="black" points="202.39,-152.03 209.4,-144.09 198.97,-145.92 202.39,-152.03"/>
</g>
<!-- flask_config -->
<g id="node5" class="node">
<title>flask_config</title><style>.edge>path:hover{stroke-width:8}</style>
<ellipse fill="#53b653" stroke="black" cx="238.14" cy="-199" rx="39.84" ry="18"/>
<text xml:space="preserve" text-anchor="middle" x="238.14" y="-195.5" font-family="Helvetica,sans-Serif" font-size="10.00" fill="#000000">flask.config</text>
</g>
<!-- flask_config&#45;&gt;flask -->
<g id="edge7" class="edge">
<title>flask_config&#45;&gt;flask</title><style>.edge>path:hover{stroke-width:8}</style>
<path fill="none" stroke="black" d="M238.14,-180.7C238.14,-173.41 238.14,-164.73 238.14,-156.54"/>
<polygon fill="#53b653" stroke="black" points="241.64,-156.62 238.14,-146.62 234.64,-156.62 241.64,-156.62"/>
</g>
<!-- flask_ctx&#45;&gt;flask -->
<g id="edge8" class="edge">
<title>flask_ctx&#45;&gt;flask</title><style>.edge>path:hover{stroke-width:8}</style>
<path fill="none" stroke="black" d="M133.04,-477.76C104.62,-455.83 57.98,-415.58 32.14,-370.25 10.86,-332.94 13.34,-319.27 8.14,-276.63"/>
<path fill="none" stroke="black" d="M8.14,-198C25.22,-163.14 138.91,-141.98 199.79,-133.02"/>
<polygon fill="blue" stroke="black" points="199.96,-136.53 209.37,-131.65 198.97,-129.6 199.96,-136.53"/>
<path fill="none" stroke="black" d="M8.14,-274.63C2.54,-241.94 -6.46,-229.78 8.14,-200"/>
</g>
<!-- flask_ctx&#45;&gt;flask_globals -->
<g id="edge10" class="edge">
<title>flask_ctx&#45;&gt;flask_globals</title><style>.edge>path:hover{stroke-width:8}</style>
<path fill="none" stroke="black" d="M168.97,-467.64C171.09,-462.7 173.29,-457.57 175.4,-452.64"/>
<polygon fill="blue" stroke="black" points="165.87,-465.99 165.15,-476.56 172.3,-468.75 165.87,-465.99"/>
<polygon fill="blue" stroke="black" points="178.49,-454.32 179.21,-443.75 172.05,-451.56 178.49,-454.32"/>
</g>
<!-- flask_globals&#45;&gt;flask -->
<g id="edge11" class="edge">
<title>flask_globals&#45;&gt;flask</title><style>.edge>path:hover{stroke-width:8}</style>
<path fill="none" stroke="black" d="M151.29,-417.82C116.27,-410.27 65.49,-392.77 46.14,-353.25"/>
<path fill="none" stroke="black" d="M46.14,-351.25C29.76,-317.83 12.65,-313.57 8.14,-276.63"/>
</g>
<!-- flask_globals&#45;&gt;flask_blueprints -->
<g id="edge13" class="edge">
<title>flask_globals&#45;&gt;flask_blueprints</title><style>.edge>path:hover{stroke-width:8}</style>
<path fill="none" stroke="black" d="M46.14,-351.25C31.78,-319.78 87.73,-329.23 103.14,-298.25 113.87,-276.67 115.83,-249.15 115.42,-228.73"/>
<polygon fill="blue" stroke="black" points="118.92,-228.69 114.99,-218.85 111.92,-228.99 118.92,-228.69"/>
</g>
<!-- flask_helpers -->
<g id="node8" class="node">
<title>flask_helpers</title><style>.edge>path:hover{stroke-width:8}</style>
<polygon fill="blue" stroke="black" points="259.89,-293.63 188.39,-293.63 188.39,-257.63 259.89,-257.63 259.89,-293.63"/>
<text xml:space="preserve" text-anchor="middle" x="224.14" y="-272.13" font-family="Helvetica,sans-Serif" font-size="10.00" fill="white">flask.helpers</text>
</g>
<!-- flask_globals&#45;&gt;flask_helpers -->
<g id="edge15" class="edge">
<title>flask_globals&#45;&gt;flask_helpers</title><style>.edge>path:hover{stroke-width:8}</style>
<path fill="none" stroke="black" d="M191.53,-405.86C197.81,-380.95 209.45,-334.82 216.99,-304.95"/>
<polygon fill="blue" stroke="black" points="220.33,-306.02 219.38,-295.47 213.54,-304.31 220.33,-306.02"/>
</g>
<!-- flask_json -->
<g id="node9" class="node">
<title>flask_json</title><style>.edge>path:hover{stroke-width:8}</style>
<polygon fill="blue" stroke="black" points="94.14,-293.63 36.14,-293.63 36.14,-257.63 94.14,-257.63 94.14,-293.63"/>
<text xml:space="preserve" text-anchor="middle" x="65.14" y="-272.13" font-family="Helvetica,sans-Serif" font-size="10.00" fill="white">flask.json</text>
</g>
<!-- flask_globals&#45;&gt;flask_json -->
<g id="edge16" class="edge">
<title>flask_globals&#45;&gt;flask_json</title><style>.edge>path:hover{stroke-width:8}</style>
<path fill="none" stroke="black" d="M46.14,-351.25C39.37,-336.42 43.36,-318.79 49.39,-304.39"/>
<polygon fill="blue" stroke="black" points="52.5,-306.01 53.61,-295.48 46.17,-303.02 52.5,-306.01"/>
</g>
<!-- flask_globals&#45;&gt;flask_templating -->
<g id="edge17" class="edge">
<title>flask_globals&#45;&gt;flask_templating</title><style>.edge>path:hover{stroke-width:8}</style>
<path fill="none" stroke="black" d="M198.85,-406.06C215.04,-382.14 245,-337.34 269.14,-298.25 283.8,-274.5 299.68,-246.97 310.94,-227.11"/>
<polygon fill="blue" stroke="black" points="313.92,-228.95 315.79,-218.53 307.82,-225.51 313.92,-228.95"/>
</g>
<!-- flask_wrappers -->
<g id="node12" class="node">
<title>flask_wrappers</title><style>.edge>path:hover{stroke-width:8}</style>
<polygon fill="blue" stroke="black" points="184.01,-370.25 104.26,-370.25 104.26,-334.25 184.01,-334.25 184.01,-370.25"/>
<text xml:space="preserve" text-anchor="middle" x="144.14" y="-348.75" font-family="Helvetica,sans-Serif" font-size="10.00" fill="white">flask.wrappers</text>
</g>
<!-- flask_globals&#45;&gt;flask_wrappers -->
<g id="edge18" class="edge">
<title>flask_globals&#45;&gt;flask_wrappers</title><style>.edge>path:hover{stroke-width:8}</style>
<path fill="none" stroke="black" d="M170.52,-396.2C167.27,-390.91 163.85,-385.35 160.61,-380.07"/>
<polygon fill="blue" stroke="black" points="167.5,-397.97 175.71,-404.66 173.46,-394.31 167.5,-397.97"/>
<polygon fill="blue" stroke="black" points="163.65,-378.34 155.43,-371.65 157.69,-382 163.65,-378.34"/>
</g>
<!-- flask_helpers&#45;&gt;flask -->
<g id="edge19" class="edge">
<title>flask_helpers&#45;&gt;flask</title><style>.edge>path:hover{stroke-width:8}</style>
<path fill="none" stroke="black" d="M199.39,-257.41C182.71,-243.48 164.65,-222.53 170.14,-200"/>
</g>
<!-- flask_helpers&#45;&gt;flask_app -->
<g id="edge20" class="edge">
<title>flask_helpers&#45;&gt;flask_app</title><style>.edge>path:hover{stroke-width:8}</style>
<path fill="none" stroke="black" d="M224.98,-293.94C226.7,-319.8 231.74,-370.06 246.24,-412.62"/>
<polygon fill="blue" stroke="black" points="242.89,-413.65 249.62,-421.83 249.46,-411.24 242.89,-413.65"/>
</g>
<!-- flask_helpers&#45;&gt;flask_blueprints -->
<g id="edge21" class="edge">
<title>flask_helpers&#45;&gt;flask_blueprints</title><style>.edge>path:hover{stroke-width:8}</style>
<path fill="none" stroke="black" d="M198.11,-257.13C183.22,-247.12 164.34,-234.43 148.16,-223.55"/>
<polygon fill="blue" stroke="black" points="150.5,-220.91 140.25,-218.23 146.6,-226.72 150.5,-220.91"/>
</g>
<!-- flask_helpers&#45;&gt;flask_templating -->
<g id="edge22" class="edge">
<title>flask_helpers&#45;&gt;flask_templating</title><style>.edge>path:hover{stroke-width:8}</style>
<path fill="none" stroke="black" d="M248.05,-257.13C261.48,-247.31 278.44,-234.9 293.11,-224.16"/>
<polygon fill="blue" stroke="black" points="295.15,-227.01 301.15,-218.28 291.01,-221.36 295.15,-227.01"/>
</g>
<!-- flask_json&#45;&gt;flask -->
<g id="edge24" class="edge">
<title>flask_json&#45;&gt;flask</title><style>.edge>path:hover{stroke-width:8}</style>
<path fill="none" stroke="black" d="M37.2,-257.26C17.95,-242.93 -2.41,-221.52 8.14,-200"/>
</g>
<!-- flask_signals -->
<g id="node10" class="node">
<title>flask_signals</title><style>.edge>path:hover{stroke-width:8}</style>
<ellipse fill="#22e722" stroke="black" cx="250.14" cy="-640.25" rx="42.54" ry="18"/>
<text xml:space="preserve" text-anchor="middle" x="250.14" y="-636.75" font-family="Helvetica,sans-Serif" font-size="10.00" fill="#000000">flask.signals</text>
</g>
<!-- flask_signals&#45;&gt;flask -->
<g id="edge26" class="edge">
<title>flask_signals&#45;&gt;flask</title><style>.edge>path:hover{stroke-width:8}</style>
<path fill="none" stroke="black" d="M440.14,-274.63C425.54,-244.84 457.34,-228.36 440.14,-200"/>
</g>
<!-- flask_signals&#45;&gt;flask_app -->
<g id="edge27" class="edge">
<title>flask_signals&#45;&gt;flask_app</title><style>.edge>path:hover{stroke-width:8}</style>
<path fill="none" stroke="black" d="M250.14,-621.95C250.14,-614.66 250.14,-605.98 250.14,-597.79"/>
<polygon fill="#22e722" stroke="black" points="253.64,-597.87 250.14,-587.87 246.64,-597.87 253.64,-597.87"/>
</g>
<!-- flask_signals&#45;&gt;flask_ctx -->
<g id="edge28" class="edge">
<title>flask_signals&#45;&gt;flask_ctx</title><style>.edge>path:hover{stroke-width:8}</style>
<path fill="none" stroke="black" d="M238.26,-622.69C230.9,-612.31 221.32,-598.6 213.14,-586.25 199.47,-565.65 184.59,-541.94 173.61,-524.18"/>
<polygon fill="#22e722" stroke="black" points="176.65,-522.44 168.42,-515.76 170.69,-526.11 176.65,-522.44"/>
</g>
<!-- flask_signals&#45;&gt;flask_helpers -->
<g id="edge29" class="edge">
<title>flask_signals&#45;&gt;flask_helpers</title><style>.edge>path:hover{stroke-width:8}</style>
<path fill="none" stroke="black" d="M289.81,-633.24C326.1,-625.39 377.74,-607.8 402.14,-569.25"/>
<path fill="none" stroke="black" d="M402.14,-567.25C464.23,-469.13 326.49,-350.64 258.83,-300.68"/>
<polygon fill="#22e722" stroke="black" points="261.14,-298.04 251,-294.99 257.03,-303.7 261.14,-298.04"/>
</g>
<!-- flask_signals&#45;&gt;flask_templating -->
<g id="edge30" class="edge">
<title>flask_signals&#45;&gt;flask_templating</title><style>.edge>path:hover{stroke-width:8}</style>
<path fill="none" stroke="black" d="M440.14,-274.63C429.55,-242.67 395.5,-223.18 367.35,-212.17"/>
<polygon fill="#22e722" stroke="black" points="368.93,-209.02 358.33,-208.88 366.53,-215.6 368.93,-209.02"/>
<path fill="none" stroke="black" d="M402.14,-567.25C489.41,-470.54 481.09,-400.29 440.14,-276.63"/>
</g>
<!-- flask_templating&#45;&gt;flask -->
<g id="edge31" class="edge">
<title>flask_templating&#45;&gt;flask</title><style>.edge>path:hover{stroke-width:8}</style>
<path fill="none" stroke="black" d="M304.38,-180.7C293.7,-172.2 280.64,-161.81 268.95,-152.51"/>
<polygon fill="blue" stroke="black" points="271.13,-149.78 261.13,-146.29 266.77,-155.25 271.13,-149.78"/>
</g>
<!-- flask_wrappers&#45;&gt;flask -->
<g id="edge33" class="edge">
<title>flask_wrappers&#45;&gt;flask</title><style>.edge>path:hover{stroke-width:8}</style>
<path fill="none" stroke="black" d="M160.14,-274.63C159.62,-241.17 162.23,-232.52 170.14,-200"/>
<path fill="none" stroke="black" d="M170.14,-198C174.65,-179.46 188.35,-163.68 202.28,-151.83"/>
<polygon fill="blue" stroke="black" points="204.08,-154.87 209.72,-145.91 199.72,-149.39 204.08,-154.87"/>
</g>
<!-- flask_wrappers&#45;&gt;flask_app -->
<g id="edge34" class="edge">
<title>flask_wrappers&#45;&gt;flask_app</title><style>.edge>path:hover{stroke-width:8}</style>
<path fill="none" stroke="black" d="M184.38,-366.34C206.35,-375.73 231.75,-390.74 245.16,-413.18"/>
<polygon fill="blue" stroke="black" points="241.9,-414.48 249.47,-421.9 248.18,-411.38 241.9,-414.48"/>
<path fill="none" stroke="black" d="M250.14,-425.25C264.29,-468.35 258.1,-522.85 253.49,-550.1"/>
</g>
<!-- flask_wrappers&#45;&gt;flask_blueprints -->
<g id="edge35" class="edge">
<title>flask_wrappers&#45;&gt;flask_blueprints</title><style>.edge>path:hover{stroke-width:8}</style>
<path fill="none" stroke="black" d="M150.16,-333.99C154.82,-319 160.45,-296.63 160.14,-276.63"/>
<path fill="none" stroke="black" d="M160.14,-274.63C159.86,-256.59 149.88,-239.35 139.19,-225.99"/>
<polygon fill="blue" stroke="black" points="141.96,-223.84 132.78,-218.55 136.65,-228.41 141.96,-223.84"/>
</g>
<!-- flask_wrappers&#45;&gt;flask_ctx -->
<g id="edge36" class="edge">
<title>flask_wrappers&#45;&gt;flask_ctx</title><style>.edge>path:hover{stroke-width:8}</style>
<path fill="none" stroke="black" d="M142.5,-370.73C141.15,-388.74 139.93,-417.58 143.14,-442.25 144.19,-450.37 146.12,-459.02 148.21,-466.92"/>
<polygon fill="blue" stroke="black" points="144.79,-467.7 150.9,-476.36 151.52,-465.78 144.79,-467.7"/>
</g>
<!-- flask_wrappers&#45;&gt;flask_helpers -->
<g id="edge38" class="edge">
<title>flask_wrappers&#45;&gt;flask_helpers</title><style>.edge>path:hover{stroke-width:8}</style>
<path fill="none" stroke="black" d="M170.96,-326.23C179.35,-318.41 188.61,-309.77 197.02,-301.92"/>
<polygon fill="blue" stroke="black" points="168.72,-323.53 163.8,-332.91 173.5,-328.65 168.72,-323.53"/>
<polygon fill="blue" stroke="black" points="199.37,-304.51 204.3,-295.13 194.6,-299.4 199.37,-304.51"/>
</g>
<!-- flask_wrappers&#45;&gt;flask_json -->
<g id="edge39" class="edge">
<title>flask_wrappers&#45;&gt;flask_json</title><style>.edge>path:hover{stroke-width:8}</style>
<path fill="none" stroke="black" d="M117.65,-326.23C109.36,-318.41 100.22,-309.77 91.91,-301.92"/>
<polygon fill="blue" stroke="black" points="115.04,-328.58 124.71,-332.91 119.85,-323.5 115.04,-328.58"/>
<polygon fill="blue" stroke="black" points="94.41,-299.46 84.73,-295.14 89.6,-304.55 94.41,-299.46"/>
</g>
<!-- psycopg2 -->
<g id="node13" class="node">
<title>psycopg2</title><style>.edge>path:hover{stroke-width:8}</style>
<polygon fill="blue" stroke="black" points="507.14,-145 449.14,-145 449.14,-109 507.14,-109 507.14,-145"/>
<text xml:space="preserve" text-anchor="middle" x="478.14" y="-123.5" font-family="Helvetica,sans-Serif" font-size="10.00" fill="white">psycopg2</text>
</g>
<!-- psycopg2&#45;&gt;app_py -->
<g id="edge40" class="edge">
<title>psycopg2&#45;&gt;app_py</title><style>.edge>path:hover{stroke-width:8}</style>
<path fill="none" stroke="black" d="M473.67,-108.92C471.78,-97.82 471.36,-83.52 478.14,-73"/>
</g>
<!-- psycopg2__psycopg -->
<g id="node14" class="node">
<title>psycopg2__psycopg</title><style>.edge>path:hover{stroke-width:8}</style>
<ellipse fill="#4747c2" stroke="black" cx="525.14" cy="-275.63" rx="43.13" ry="22.63"/>
<text xml:space="preserve" text-anchor="middle" x="525.14" y="-278.13" font-family="Helvetica,sans-Serif" font-size="10.00" fill="#ffffff">psycopg2.</text>
<text xml:space="preserve" text-anchor="middle" x="525.14" y="-266.13" font-family="Helvetica,sans-Serif" font-size="10.00" fill="#ffffff">_psycopg</text>
</g>
<!-- psycopg2__psycopg&#45;&gt;psycopg2 -->
<g id="edge41" class="edge">
<title>psycopg2__psycopg&#45;&gt;psycopg2</title><style>.edge>path:hover{stroke-width:8}</style>
<path fill="none" stroke="black" d="M513.36,-253.53C507.79,-242.85 501.44,-229.52 497.14,-217 490.37,-197.33 485.54,-174.36 482.44,-156.68"/>
<polygon fill="#4747c2" stroke="black" points="485.91,-156.18 480.82,-146.89 479,-157.33 485.91,-156.18"/>
</g>
<!-- psycopg2_extensions -->
<g id="node15" class="node">
<title>psycopg2_extensions</title><style>.edge>path:hover{stroke-width:8}</style>
<polygon fill="blue" stroke="black" points="569.76,-217 506.51,-217 506.51,-181 569.76,-181 569.76,-217"/>
<text xml:space="preserve" text-anchor="middle" x="538.14" y="-201.5" font-family="Helvetica,sans-Serif" font-size="10.00" fill="white">psycopg2.</text>
<text xml:space="preserve" text-anchor="middle" x="538.14" y="-189.5" font-family="Helvetica,sans-Serif" font-size="10.00" fill="white">extensions</text>
</g>
<!-- psycopg2__psycopg&#45;&gt;psycopg2_extensions -->
<g id="edge42" class="edge">
<title>psycopg2__psycopg&#45;&gt;psycopg2_extensions</title><style>.edge>path:hover{stroke-width:8}</style>
<path fill="none" stroke="black" d="M528.97,-252.64C530.29,-245.01 531.8,-236.35 533.21,-228.29"/>
<polygon fill="#4747c2" stroke="black" points="536.63,-229.04 534.9,-218.59 529.73,-227.84 536.63,-229.04"/>
</g>
<!-- psycopg2_extensions&#45;&gt;psycopg2 -->
<g id="edge43" class="edge">
<title>psycopg2_extensions&#45;&gt;psycopg2</title><style>.edge>path:hover{stroke-width:8}</style>
<path fill="none" stroke="black" d="M523.3,-180.7C516.33,-172.56 507.87,-162.69 500.17,-153.7"/>
<polygon fill="blue" stroke="black" points="502.95,-151.57 493.78,-146.25 497.63,-156.12 502.95,-151.57"/>
</g>
</g>
</svg>
