<?xml version="1.0" encoding="UTF-8" standalone="no"?>
<!DOCTYPE svg PUBLIC "-//W3C//DTD SVG 1.1//EN"
 "http://www.w3.org/Graphics/SVG/1.1/DTD/svg11.dtd">
<!-- Generated by graphviz version 13.0.0 (20250608.1624)
 -->
<!-- Title: G Pages: 1 -->
<svg width="586pt" height="666pt"
 viewBox="0.00 0.00 586.00 666.00" xmlns="http://www.w3.org/2000/svg" xmlns:xlink="http://www.w3.org/1999/xlink">
<g id="graph0" class="graph" transform="scale(1 1) rotate(0) translate(4 662.25)">
<title>G</title><style>.edge>path:hover{stroke-width:8}</style>
<polygon fill="white" stroke="none" points="-4,4 -4,-662.25 581.85,-662.25 581.85,4 -4,4"/>
<!-- app_py -->
<g id="node1" class="node">
<title>app_py</title><style>.edge>path:hover{stroke-width:8}</style>
<ellipse fill="#995252" stroke="black" cx="429.5" cy="-18" rx="27.21" ry="18"/>
<text xml:space="preserve" text-anchor="middle" x="429.5" y="-14.5" font-family="Helvetica,sans-Serif" font-size="10.00" fill="#ffffff">app.py</text>
</g>
<!-- flask -->
<g id="node2" class="node">
<title>flask</title><style>.edge>path:hover{stroke-width:8}</style>
<polygon fill="blue" stroke="black" points="299.5,-145 245.5,-145 245.5,-109 299.5,-109 299.5,-145"/>
<text xml:space="preserve" text-anchor="middle" x="272.5" y="-123.5" font-family="Helvetica,sans-Serif" font-size="10.00" fill="white">flask</text>
</g>
<!-- flask&#45;&gt;app_py -->
<g id="edge1" class="edge">
<title>flask&#45;&gt;app_py</title><style>.edge>path:hover{stroke-width:8}</style>
<path fill="none" stroke="black" d="M299.79,-122.09C342.95,-115.14 422.78,-98.9 429.5,-73"/>
<path fill="none" stroke="black" d="M429.5,-72C431.53,-64.19 432.16,-55.52 432.13,-47.49"/>
<polygon fill="blue" stroke="black" points="435.63,-47.34 431.71,-37.5 428.63,-47.63 435.63,-47.34"/>
</g>
<!-- flask_app -->
<g id="node3" class="node">
<title>flask_app</title><style>.edge>path:hover{stroke-width:8}</style>
<polygon fill="blue" stroke="black" points="265.38,-586.25 209.62,-586.25 209.62,-550.25 265.38,-550.25 265.38,-586.25"/>
<text xml:space="preserve" text-anchor="middle" x="237.5" y="-564.75" font-family="Helvetica,sans-Serif" font-size="10.00" fill="white">flask.app</text>
</g>
<!-- flask_app&#45;&gt;flask -->
<g id="edge2" class="edge">
<title>flask_app&#45;&gt;flask</title><style>.edge>path:hover{stroke-width:8}</style>
<path fill="none" stroke="black" d="M379.5,-495.25C392.09,-464.57 368.16,-451.8 379.5,-420.63"/>
<path fill="none" stroke="black" d="M265.67,-564.03C301.59,-558.13 361.25,-541.76 379.5,-497.25"/>
</g>
<!-- flask_ctx -->
<g id="node6" class="node">
<title>flask_ctx</title><style>.edge>path:hover{stroke-width:8}</style>
<polygon fill="blue" stroke="black" points="339.5,-514.25 285.5,-514.25 285.5,-478.25 339.5,-478.25 339.5,-514.25"/>
<text xml:space="preserve" text-anchor="middle" x="312.5" y="-492.75" font-family="Helvetica,sans-Serif" font-size="10.00" fill="white">flask.ctx</text>
</g>
<!-- flask_app&#45;&gt;flask_ctx -->
<g id="edge3" class="edge">
<title>flask_app&#45;&gt;flask_ctx</title><style>.edge>path:hover{stroke-width:8}</style>
<path fill="none" stroke="black" d="M264.31,-542.23C271.2,-535.8 278.62,-528.87 285.53,-522.43"/>
<polygon fill="blue" stroke="black" points="262.07,-539.54 257.15,-548.92 266.84,-544.65 262.07,-539.54"/>
<polygon fill="blue" stroke="black" points="287.89,-525.02 292.81,-515.63 283.11,-519.9 287.89,-525.02"/>
</g>
<!-- flask_globals -->
<g id="node7" class="node">
<title>flask_globals</title><style>.edge>path:hover{stroke-width:8}</style>
<polygon fill="blue" stroke="black" points="229.88,-437.63 159.12,-437.63 159.12,-401.63 229.88,-401.63 229.88,-437.63"/>
<text xml:space="preserve" text-anchor="middle" x="194.5" y="-416.13" font-family="Helvetica,sans-Serif" font-size="10.00" fill="white">flask.globals</text>
</g>
<!-- flask_app&#45;&gt;flask_globals -->
<g id="edge4" class="edge">
<title>flask_app&#45;&gt;flask_globals</title><style>.edge>path:hover{stroke-width:8}</style>
<path fill="none" stroke="black" d="M229.19,-538.9C221.59,-512.99 210.41,-474.86 202.81,-448.96"/>
<polygon fill="blue" stroke="black" points="225.8,-539.8 231.97,-548.41 232.52,-537.83 225.8,-539.8"/>
<polygon fill="blue" stroke="black" points="206.19,-448.06 200.02,-439.45 199.48,-450.03 206.19,-448.06"/>
</g>
<!-- flask_templating -->
<g id="node11" class="node">
<title>flask_templating</title><style>.edge>path:hover{stroke-width:8}</style>
<polygon fill="blue" stroke="black" points="61,-217 0,-217 0,-181 61,-181 61,-217"/>
<text xml:space="preserve" text-anchor="middle" x="30.5" y="-201.5" font-family="Helvetica,sans-Serif" font-size="10.00" fill="white">flask.</text>
<text xml:space="preserve" text-anchor="middle" x="30.5" y="-189.5" font-family="Helvetica,sans-Serif" font-size="10.00" fill="white">templating</text>
</g>
<!-- flask_app&#45;&gt;flask_templating -->
<g id="edge5" class="edge">
<title>flask_app&#45;&gt;flask_templating</title><style>.edge>path:hover{stroke-width:8}</style>
<path fill="none" stroke="black" d="M200.67,-543.31C189.29,-534.92 177.2,-524.91 167.5,-514.25 88.9,-427.97 63.04,-401.65 32.5,-289 27.18,-269.37 26.8,-246.39 27.69,-228.71"/>
<polygon fill="blue" stroke="black" points="198.59,-546.13 208.76,-549.08 202.65,-540.43 198.59,-546.13"/>
<polygon fill="blue" stroke="black" points="31.17,-229.14 28.36,-218.92 24.18,-228.66 31.17,-229.14"/>
</g>
<!-- flask_blueprints -->
<g id="node4" class="node">
<title>flask_blueprints</title><style>.edge>path:hover{stroke-width:8}</style>
<polygon fill="blue" stroke="black" points="244.5,-217 186.5,-217 186.5,-181 244.5,-181 244.5,-217"/>
<text xml:space="preserve" text-anchor="middle" x="215.5" y="-201.5" font-family="Helvetica,sans-Serif" font-size="10.00" fill="white">flask.</text>
<text xml:space="preserve" text-anchor="middle" x="215.5" y="-189.5" font-family="Helvetica,sans-Serif" font-size="10.00" fill="white">blueprints</text>
</g>
<!-- flask_blueprints&#45;&gt;flask -->
<g id="edge6" class="edge">
<title>flask_blueprints&#45;&gt;flask</title><style>.edge>path:hover{stroke-width:8}</style>
<path fill="none" stroke="black" d="M229.59,-180.7C236.15,-172.64 244.09,-162.89 251.34,-153.98"/>
<polygon fill="blue" stroke="black" points="254.02,-156.24 257.62,-146.28 248.59,-151.82 254.02,-156.24"/>
</g>
<!-- flask_config -->
<g id="node5" class="node">
<title>flask_config</title><style>.edge>path:hover{stroke-width:8}</style>
<ellipse fill="#85b653" stroke="black" cx="340.5" cy="-199" rx="39.84" ry="18"/>
<text xml:space="preserve" text-anchor="middle" x="340.5" y="-195.5" font-family="Helvetica,sans-Serif" font-size="10.00" fill="#000000">flask.config</text>
</g>
<!-- flask_config&#45;&gt;flask -->
<g id="edge7" class="edge">
<title>flask_config&#45;&gt;flask</title><style>.edge>path:hover{stroke-width:8}</style>
<path fill="none" stroke="black" d="M325.07,-182.12C316.83,-173.63 306.48,-162.98 297.15,-153.38"/>
<polygon fill="#85b653" stroke="black" points="299.83,-151.11 290.35,-146.38 294.81,-155.99 299.83,-151.11"/>
</g>
<!-- flask_ctx&#45;&gt;flask -->
<g id="edge8" class="edge">
<title>flask_ctx&#45;&gt;flask</title><style>.edge>path:hover{stroke-width:8}</style>
<path fill="none" stroke="black" d="M379.5,-418.63C404.49,-315.92 446.78,-269.84 389.5,-181 372.26,-154.27 337.92,-140.87 310.88,-134.25"/>
<polygon fill="blue" stroke="black" points="311.8,-130.87 301.28,-132.13 310.29,-137.71 311.8,-130.87"/>
<path fill="none" stroke="black" d="M335.5,-477.86C351.36,-464.28 371.05,-443.86 379.5,-420.63"/>
</g>
<!-- flask_ctx&#45;&gt;flask_globals -->
<g id="edge10" class="edge">
<title>flask_ctx&#45;&gt;flask_globals</title><style>.edge>path:hover{stroke-width:8}</style>
<path fill="none" stroke="black" d="M275.86,-472.08C261.76,-463.17 245.68,-452.99 231.55,-444.06"/>
<polygon fill="blue" stroke="black" points="273.53,-474.75 283.85,-477.14 277.27,-468.83 273.53,-474.75"/>
<polygon fill="blue" stroke="black" points="233.73,-441.3 223.41,-438.91 229.99,-447.21 233.73,-441.3"/>
</g>
<!-- flask_globals&#45;&gt;flask -->
<g id="edge11" class="edge">
<title>flask_globals&#45;&gt;flask</title><style>.edge>path:hover{stroke-width:8}</style>
<path fill="none" stroke="black" d="M230.33,-408.26C253.09,-399.6 280.76,-384.77 294.5,-361 330.64,-298.47 281.79,-271.62 272.5,-200"/>
</g>
<!-- flask_globals&#45;&gt;flask_blueprints -->
<g id="edge13" class="edge">
<title>flask_globals&#45;&gt;flask_blueprints</title><style>.edge>path:hover{stroke-width:8}</style>
<path fill="none" stroke="black" d="M177.5,-342C172.62,-313.43 206.63,-316.59 215.5,-289 221.76,-269.52 221.55,-246.37 219.88,-228.57"/>
<polygon fill="blue" stroke="black" points="223.36,-228.24 218.73,-218.71 216.41,-229.05 223.36,-228.24"/>
</g>
<!-- flask_helpers -->
<g id="node8" class="node">
<title>flask_helpers</title><style>.edge>path:hover{stroke-width:8}</style>
<polygon fill="blue" stroke="black" points="130.25,-289 58.75,-289 58.75,-253 130.25,-253 130.25,-289"/>
<text xml:space="preserve" text-anchor="middle" x="94.5" y="-267.5" font-family="Helvetica,sans-Serif" font-size="10.00" fill="white">flask.helpers</text>
</g>
<!-- flask_globals&#45;&gt;flask_helpers -->
<g id="edge15" class="edge">
<title>flask_globals&#45;&gt;flask_helpers</title><style>.edge>path:hover{stroke-width:8}</style>
<path fill="none" stroke="black" d="M189.97,-401.24C186.18,-386.19 180.88,-363.78 177.5,-344"/>
<path fill="none" stroke="black" d="M177.5,-342C173.94,-321.15 157.55,-305.13 140.27,-293.71"/>
<polygon fill="blue" stroke="black" points="142.3,-290.85 131.94,-288.62 138.65,-296.82 142.3,-290.85"/>
</g>
<!-- flask_json -->
<g id="node9" class="node">
<title>flask_json</title><style>.edge>path:hover{stroke-width:8}</style>
<polygon fill="blue" stroke="black" points="206.5,-289 148.5,-289 148.5,-253 206.5,-253 206.5,-289"/>
<text xml:space="preserve" text-anchor="middle" x="177.5" y="-267.5" font-family="Helvetica,sans-Serif" font-size="10.00" fill="white">flask.json</text>
</g>
<!-- flask_globals&#45;&gt;flask_json -->
<g id="edge16" class="edge">
<title>flask_globals&#45;&gt;flask_json</title><style>.edge>path:hover{stroke-width:8}</style>
<path fill="none" stroke="black" d="M177.5,-342C175.21,-328.56 174.92,-313.47 175.33,-300.74"/>
<polygon fill="blue" stroke="black" points="178.82,-301.07 175.81,-290.91 171.82,-300.73 178.82,-301.07"/>
</g>
<!-- flask_globals&#45;&gt;flask_templating -->
<g id="edge17" class="edge">
<title>flask_globals&#45;&gt;flask_templating</title><style>.edge>path:hover{stroke-width:8}</style>
<path fill="none" stroke="black" d="M165.86,-401.19C132.48,-379.28 78.23,-338.5 49.5,-289 38.82,-270.59 34.12,-246.91 32.06,-228.61"/>
<polygon fill="blue" stroke="black" points="35.55,-228.35 31.17,-218.7 28.58,-228.98 35.55,-228.35"/>
</g>
<!-- flask_wrappers -->
<g id="node12" class="node">
<title>flask_wrappers</title><style>.edge>path:hover{stroke-width:8}</style>
<polygon fill="blue" stroke="black" points="285.38,-361 205.62,-361 205.62,-325 285.38,-325 285.38,-361"/>
<text xml:space="preserve" text-anchor="middle" x="245.5" y="-339.5" font-family="Helvetica,sans-Serif" font-size="10.00" fill="white">flask.wrappers</text>
</g>
<!-- flask_globals&#45;&gt;flask_wrappers -->
<g id="edge18" class="edge">
<title>flask_globals&#45;&gt;flask_wrappers</title><style>.edge>path:hover{stroke-width:8}</style>
<path fill="none" stroke="black" d="M212.67,-392.05C217.44,-385.06 222.58,-377.53 227.36,-370.55"/>
<polygon fill="blue" stroke="black" points="209.94,-389.84 207.18,-400.07 215.71,-393.79 209.94,-389.84"/>
<polygon fill="blue" stroke="black" points="229.95,-372.95 232.7,-362.72 224.17,-369 229.95,-372.95"/>
</g>
<!-- flask_helpers&#45;&gt;flask -->
<g id="edge19" class="edge">
<title>flask_helpers&#45;&gt;flask</title><style>.edge>path:hover{stroke-width:8}</style>
<path fill="none" stroke="black" d="M158.5,-198C178.06,-172.54 209.74,-154.16 234.75,-142.65"/>
<polygon fill="blue" stroke="black" points="235.88,-145.97 243.62,-138.74 233.05,-139.57 235.88,-145.97"/>
<path fill="none" stroke="black" d="M111.96,-252.61C125.35,-238.88 143.95,-218.93 158.5,-200"/>
</g>
<!-- flask_helpers&#45;&gt;flask_app -->
<g id="edge20" class="edge">
<title>flask_helpers&#45;&gt;flask_app</title><style>.edge>path:hover{stroke-width:8}</style>
<path fill="none" stroke="black" d="M98.36,-289.07C105.85,-320.48 123.96,-389.08 150.5,-442.25 168.74,-478.8 196.65,-516.76 215.92,-541.12"/>
<polygon fill="blue" stroke="black" points="213.15,-543.27 222.14,-548.89 218.62,-538.89 213.15,-543.27"/>
</g>
<!-- flask_helpers&#45;&gt;flask_blueprints -->
<g id="edge21" class="edge">
<title>flask_helpers&#45;&gt;flask_blueprints</title><style>.edge>path:hover{stroke-width:8}</style>
<path fill="none" stroke="black" d="M124.72,-252.52C140.4,-243.44 159.74,-232.26 176.53,-222.54"/>
<polygon fill="blue" stroke="black" points="177.87,-225.81 184.77,-217.78 174.36,-219.75 177.87,-225.81"/>
</g>
<!-- flask_helpers&#45;&gt;flask_templating -->
<g id="edge22" class="edge">
<title>flask_helpers&#45;&gt;flask_templating</title><style>.edge>path:hover{stroke-width:8}</style>
<path fill="none" stroke="black" d="M78.68,-252.7C71.16,-244.47 62.03,-234.48 53.74,-225.42"/>
<polygon fill="blue" stroke="black" points="56.49,-223.24 47.16,-218.22 51.32,-227.96 56.49,-223.24"/>
</g>
<!-- flask_json&#45;&gt;flask -->
<g id="edge24" class="edge">
<title>flask_json&#45;&gt;flask</title><style>.edge>path:hover{stroke-width:8}</style>
<path fill="none" stroke="black" d="M165.05,-252.54C155.84,-237.3 146.76,-215.28 158.5,-200"/>
</g>
<!-- flask_signals -->
<g id="node10" class="node">
<title>flask_signals</title><style>.edge>path:hover{stroke-width:8}</style>
<ellipse fill="#85e722" stroke="black" cx="237.5" cy="-640.25" rx="42.54" ry="18"/>
<text xml:space="preserve" text-anchor="middle" x="237.5" y="-636.75" font-family="Helvetica,sans-Serif" font-size="10.00" fill="#000000">flask.signals</text>
</g>
<!-- flask_signals&#45;&gt;flask -->
<g id="edge26" class="edge">
<title>flask_signals&#45;&gt;flask</title><style>.edge>path:hover{stroke-width:8}</style>
<path fill="none" stroke="black" d="M379.5,-567.25C389.67,-537.85 367.69,-526.04 379.5,-497.25"/>
</g>
<!-- flask_signals&#45;&gt;flask_app -->
<g id="edge27" class="edge">
<title>flask_signals&#45;&gt;flask_app</title><style>.edge>path:hover{stroke-width:8}</style>
<path fill="none" stroke="black" d="M237.5,-621.95C237.5,-614.66 237.5,-605.98 237.5,-597.79"/>
<polygon fill="#85e722" stroke="black" points="241,-597.87 237.5,-587.87 234,-597.87 241,-597.87"/>
</g>
<!-- flask_signals&#45;&gt;flask_ctx -->
<g id="edge28" class="edge">
<title>flask_signals&#45;&gt;flask_ctx</title><style>.edge>path:hover{stroke-width:8}</style>
<path fill="none" stroke="black" d="M379.5,-567.25C386.74,-546.31 368.79,-528.38 349.65,-515.92"/>
<polygon fill="#85e722" stroke="black" points="351.63,-513.03 341.26,-510.86 348.02,-519.02 351.63,-513.03"/>
<path fill="none" stroke="black" d="M278.1,-634.31C314.86,-627.23 365.35,-610.17 379.5,-569.25"/>
</g>
<!-- flask_signals&#45;&gt;flask_helpers -->
<g id="edge29" class="edge">
<title>flask_signals&#45;&gt;flask_helpers</title><style>.edge>path:hover{stroke-width:8}</style>
<path fill="none" stroke="black" d="M30.5,-495.25C13.71,-423.6 53.4,-340.63 77.56,-298.9"/>
<polygon fill="#85e722" stroke="black" points="80.45,-300.9 82.55,-290.52 74.43,-297.32 80.45,-300.9"/>
</g>
<!-- flask_signals&#45;&gt;flask_templating -->
<g id="edge30" class="edge">
<title>flask_signals&#45;&gt;flask_templating</title><style>.edge>path:hover{stroke-width:8}</style>
<path fill="none" stroke="black" d="M30.5,-495.25C8.3,-399.6 19.33,-281.76 26.28,-228.51"/>
<polygon fill="#85e722" stroke="black" points="29.73,-229.16 27.61,-218.78 22.79,-228.22 29.73,-229.16"/>
<path fill="none" stroke="black" d="M200.13,-631.38C141.23,-616.52 33.16,-578.27 30.5,-497.25"/>
</g>
<!-- flask_templating&#45;&gt;flask -->
<g id="edge31" class="edge">
<title>flask_templating&#45;&gt;flask</title><style>.edge>path:hover{stroke-width:8}</style>
<path fill="none" stroke="black" d="M61.15,-189.13C105.19,-176.4 186.32,-152.93 234.23,-139.07"/>
<polygon fill="blue" stroke="black" points="234.99,-142.49 243.63,-136.35 233.05,-135.77 234.99,-142.49"/>
</g>
<!-- flask_wrappers&#45;&gt;flask -->
<g id="edge33" class="edge">
<title>flask_wrappers&#45;&gt;flask</title><style>.edge>path:hover{stroke-width:8}</style>
<path fill="none" stroke="black" d="M272.5,-270C272.22,-238.89 276.5,-230.85 272.5,-200"/>
<path fill="none" stroke="black" d="M272.5,-198C270.75,-184.48 270.53,-169.37 270.84,-156.66"/>
<polygon fill="blue" stroke="black" points="274.33,-156.98 271.21,-146.85 267.33,-156.71 274.33,-156.98"/>
</g>
<!-- flask_wrappers&#45;&gt;flask_app -->
<g id="edge34" class="edge">
<title>flask_wrappers&#45;&gt;flask_app</title><style>.edge>path:hover{stroke-width:8}</style>
<path fill="none" stroke="black" d="M257.5,-420.63C269.19,-466.43 253.75,-522.14 244.13,-549.85"/>
<path fill="none" stroke="black" d="M247.39,-361.37C248.91,-373.76 251.38,-391.06 254.9,-407.47"/>
<polygon fill="blue" stroke="black" points="251.47,-408.21 257.16,-417.15 258.29,-406.62 251.47,-408.21"/>
</g>
<!-- flask_wrappers&#45;&gt;flask_blueprints -->
<g id="edge35" class="edge">
<title>flask_wrappers&#45;&gt;flask_blueprints</title><style>.edge>path:hover{stroke-width:8}</style>
<path fill="none" stroke="black" d="M256.42,-324.58C263.99,-310.83 272.67,-290.89 272.5,-272"/>
<path fill="none" stroke="black" d="M272.5,-270C272.34,-252.56 261.54,-237.05 249.39,-225.09"/>
<polygon fill="blue" stroke="black" points="251.76,-222.52 242,-218.41 247.07,-227.71 251.76,-222.52"/>
</g>
<!-- flask_wrappers&#45;&gt;flask_ctx -->
<g id="edge36" class="edge">
<title>flask_wrappers&#45;&gt;flask_ctx</title><style>.edge>path:hover{stroke-width:8}</style>
<path fill="none" stroke="black" d="M257.5,-420.63C263.23,-443.08 279.92,-463.89 293.42,-477.8"/>
</g>
<!-- flask_wrappers&#45;&gt;flask_helpers -->
<g id="edge38" class="edge">
<title>flask_wrappers&#45;&gt;flask_helpers</title><style>.edge>path:hover{stroke-width:8}</style>
<path fill="none" stroke="black" d="M197.48,-319.74C179.39,-311.35 158.86,-301.84 140.92,-293.52"/>
<polygon fill="blue" stroke="black" points="195.87,-322.85 206.41,-323.88 198.81,-316.5 195.87,-322.85"/>
<polygon fill="blue" stroke="black" points="142.61,-290.45 132.07,-289.42 139.67,-296.8 142.61,-290.45"/>
</g>
<!-- flask_wrappers&#45;&gt;flask_json -->
<g id="edge39" class="edge">
<title>flask_wrappers&#45;&gt;flask_json</title><style>.edge>path:hover{stroke-width:8}</style>
<path fill="none" stroke="black" d="M220.86,-316.64C214.75,-310.35 208.2,-303.61 202.09,-297.32"/>
<polygon fill="blue" stroke="black" points="218.16,-318.88 227.64,-323.61 223.18,-314 218.16,-318.88"/>
<polygon fill="blue" stroke="black" points="204.65,-294.92 195.17,-290.19 199.63,-299.8 204.65,-294.92"/>
</g>
<!-- psycopg2 -->
<g id="node13" class="node">
<title>psycopg2</title><style>.edge>path:hover{stroke-width:8}</style>
<polygon fill="blue" stroke="black" points="494.5,-217 436.5,-217 436.5,-181 494.5,-181 494.5,-217"/>
<text xml:space="preserve" text-anchor="middle" x="465.5" y="-195.5" font-family="Helvetica,sans-Serif" font-size="10.00" fill="white">psycopg2</text>
</g>
<!-- psycopg2&#45;&gt;app_py -->
<g id="edge40" class="edge">
<title>psycopg2&#45;&gt;app_py</title><style>.edge>path:hover{stroke-width:8}</style>
<path fill="none" stroke="black" d="M454.46,-180.69C440.51,-156.63 419.46,-111.69 429.5,-73"/>
</g>
<!-- query_data -->
<g id="node17" class="node">
<title>query_data</title><style>.edge>path:hover{stroke-width:8}</style>
<ellipse fill="#7a49ac" stroke="black" cx="495.5" cy="-127" rx="38.49" ry="18"/>
<text xml:space="preserve" text-anchor="middle" x="495.5" y="-123.5" font-family="Helvetica,sans-Serif" font-size="10.00" fill="#ffffff">query_data</text>
</g>
<!-- psycopg2&#45;&gt;query_data -->
<g id="edge41" class="edge">
<title>psycopg2&#45;&gt;query_data</title><style>.edge>path:hover{stroke-width:8}</style>
<path fill="none" stroke="black" d="M472.92,-180.7C476.15,-173.15 480.02,-164.12 483.64,-155.68"/>
<polygon fill="blue" stroke="black" points="486.85,-157.07 487.57,-146.5 480.42,-154.31 486.85,-157.07"/>
</g>
<!-- psycopg2__psycopg -->
<g id="node14" class="node">
<title>psycopg2__psycopg</title><style>.edge>path:hover{stroke-width:8}</style>
<ellipse fill="#47c2c2" stroke="black" cx="465.5" cy="-419.63" rx="43.13" ry="22.63"/>
<text xml:space="preserve" text-anchor="middle" x="465.5" y="-422.13" font-family="Helvetica,sans-Serif" font-size="10.00" fill="#000000">psycopg2.</text>
<text xml:space="preserve" text-anchor="middle" x="465.5" y="-410.13" font-family="Helvetica,sans-Serif" font-size="10.00" fill="#000000">_psycopg</text>
</g>
<!-- psycopg2__psycopg&#45;&gt;psycopg2 -->
<g id="edge42" class="edge">
<title>psycopg2__psycopg&#45;&gt;psycopg2</title><style>.edge>path:hover{stroke-width:8}</style>
<path fill="none" stroke="black" d="M466.83,-396.58C468.14,-367.72 468.98,-315.67 461.5,-272"/>
<path fill="none" stroke="black" d="M461.5,-270C458.96,-256.59 459.42,-241.49 460.73,-228.76"/>
<polygon fill="#47c2c2" stroke="black" points="464.19,-229.28 461.99,-218.91 457.25,-228.39 464.19,-229.28"/>
</g>
<!-- psycopg2_extensions -->
<g id="node15" class="node">
<title>psycopg2_extensions</title><style>.edge>path:hover{stroke-width:8}</style>
<polygon fill="blue" stroke="black" points="553.12,-361 489.88,-361 489.88,-325 553.12,-325 553.12,-361"/>
<text xml:space="preserve" text-anchor="middle" x="521.5" y="-345.5" font-family="Helvetica,sans-Serif" font-size="10.00" fill="white">psycopg2.</text>
<text xml:space="preserve" text-anchor="middle" x="521.5" y="-333.5" font-family="Helvetica,sans-Serif" font-size="10.00" fill="white">extensions</text>
</g>
<!-- psycopg2__psycopg&#45;&gt;psycopg2_extensions -->
<g id="edge43" class="edge">
<title>psycopg2__psycopg&#45;&gt;psycopg2_extensions</title><style>.edge>path:hover{stroke-width:8}</style>
<path fill="none" stroke="black" d="M480.8,-398.24C487.24,-389.65 494.82,-379.55 501.68,-370.41"/>
<polygon fill="#47c2c2" stroke="black" points="504.38,-372.64 507.59,-362.54 498.78,-368.44 504.38,-372.64"/>
</g>
<!-- psycopg2_extensions&#45;&gt;psycopg2 -->
<g id="edge44" class="edge">
<title>psycopg2_extensions&#45;&gt;psycopg2</title><style>.edge>path:hover{stroke-width:8}</style>
<path fill="none" stroke="black" d="M497.06,-324.7C482.13,-312.14 465.2,-293.61 461.5,-272"/>
</g>
<!-- psycopg2_sql -->
<g id="node16" class="node">
<title>psycopg2_sql</title><style>.edge>path:hover{stroke-width:8}</style>
<ellipse fill="#49acac" stroke="black" cx="533.5" cy="-271" rx="44.35" ry="18"/>
<text xml:space="preserve" text-anchor="middle" x="533.5" y="-267.5" font-family="Helvetica,sans-Serif" font-size="10.00" fill="#000000">psycopg2.sql</text>
</g>
<!-- psycopg2_extensions&#45;&gt;psycopg2_sql -->
<g id="edge45" class="edge">
<title>psycopg2_extensions&#45;&gt;psycopg2_sql</title><style>.edge>path:hover{stroke-width:8}</style>
<path fill="none" stroke="black" d="M524.47,-324.7C525.73,-317.32 527.24,-308.52 528.66,-300.25"/>
<polygon fill="blue" stroke="black" points="532.07,-301.04 530.31,-290.6 525.17,-299.86 532.07,-301.04"/>
</g>
<!-- psycopg2_sql&#45;&gt;query_data -->
<g id="edge46" class="edge">
<title>psycopg2_sql&#45;&gt;query_data</title><style>.edge>path:hover{stroke-width:8}</style>
<path fill="none" stroke="black" d="M528.92,-252.87C522.5,-228.88 510.75,-184.99 503.04,-156.16"/>
<polygon fill="#49acac" stroke="black" points="506.46,-155.41 500.49,-146.65 499.7,-157.22 506.46,-155.41"/>
</g>
<!-- query_data&#45;&gt;app_py -->
<g id="edge47" class="edge">
<title>query_data&#45;&gt;app_py</title><style>.edge>path:hover{stroke-width:8}</style>
<path fill="none" stroke="black" d="M464.77,-115.85C445.14,-107.3 424.26,-93.2 429.5,-73"/>
</g>
</g>
</svg>
